<?xml version="1.0" encoding="UTF-8"?>
<!DOCTYPE svg PUBLIC "-//W3C//DTD SVG 1.1//EN" "http://www.w3.org/Graphics/SVG/1.1/DTD/svg11.dtd">
<svg xmlns="http://www.w3.org/2000/svg" version="1.1" width="29px" height="32px" style="shape-rendering:geometricPrecision; text-rendering:geometricPrecision; image-rendering:optimizeQuality; fill-rule:evenodd; clip-rule:evenodd" xmlns:xlink="http://www.w3.org/1999/xlink">
<g><path style="opacity:0.823" fill="#000000" d="M 7.5,-0.5 C 11.8333,-0.5 16.1667,-0.5 20.5,-0.5C 21.3007,1.04181 21.634,2.70848 21.5,4.5C 23.9496,4.29803 26.283,4.63137 28.5,5.5C 28.5,6.5 28.5,7.5 28.5,8.5C 27.8826,8.61071 27.3826,8.94404 27,9.5C 26.799,16.9123 26.299,24.2456 25.5,31.5C 17.8333,31.5 10.1667,31.5 2.5,31.5C 1.70097,24.2456 1.20097,16.9123 1,9.5C 0.617425,8.94404 0.117425,8.61071 -0.5,8.5C -0.5,7.5 -0.5,6.5 -0.5,5.5C 1.71702,4.63137 4.05035,4.29803 6.5,4.5C 6.36596,2.70848 6.69929,1.04181 7.5,-0.5 Z M 5.5,9.5 C 11.1667,9.5 16.8333,9.5 22.5,9.5C 22.5,15.5 22.5,21.5 22.5,27.5C 16.8333,27.5 11.1667,27.5 5.5,27.5C 5.5,21.5 5.5,15.5 5.5,9.5 Z"/></g>
<g><path style="opacity:0.812" fill="#000000" d="M 8.5,11.5 C 9.83333,11.5 11.1667,11.5 12.5,11.5C 12.5,15.8333 12.5,20.1667 12.5,24.5C 11.1667,24.5 9.83333,24.5 8.5,24.5C 8.5,20.1667 8.5,15.8333 8.5,11.5 Z"/></g>
<g><path style="opacity:0.808" fill="#000000" d="M 15.5,11.5 C 16.8333,11.5 18.1667,11.5 19.5,11.5C 19.5,15.8333 19.5,20.1667 19.5,24.5C 18.1667,24.5 16.8333,24.5 15.5,24.5C 15.5,20.1667 15.5,15.8333 15.5,11.5 Z"/></g>
</svg>
